<mxfile host="app.diagrams.net" agent="Mozilla/5.0 (Windows NT 10.0; Win64; x64) AppleWebKit/537.36 (KHTML, like Gecko) Chrome/122.0.0.0 Safari/537.36" version="24.8.6">
  <diagram id="eRYgp1I1vLrQnMJR_ads" name="Trang-1">
    <mxGraphModel grid="1" page="1" gridSize="10" guides="1" tooltips="1" connect="1" arrows="1" fold="1" pageScale="1" pageWidth="827" pageHeight="1169" math="0" shadow="0">
      <root>
        <mxCell id="0" />
        <mxCell id="1" parent="0" />
        <mxCell id="IrejGU1qMt31SxDA8QJ8-3" value="" style="edgeStyle=orthogonalEdgeStyle;rounded=0;orthogonalLoop=1;jettySize=auto;html=1;" edge="1" parent="1" source="IrejGU1qMt31SxDA8QJ8-1" target="IrejGU1qMt31SxDA8QJ8-2">
          <mxGeometry relative="1" as="geometry" />
        </mxCell>
        <mxCell id="IrejGU1qMt31SxDA8QJ8-1" value="&lt;font style=&quot;vertical-align: inherit;&quot;&gt;&lt;font style=&quot;vertical-align: inherit;&quot;&gt;Bắt Đầu&lt;/font&gt;&lt;/font&gt;" style="ellipse;whiteSpace=wrap;html=1;" vertex="1" parent="1">
          <mxGeometry x="340" y="190" width="120" height="80" as="geometry" />
        </mxCell>
        <mxCell id="IrejGU1qMt31SxDA8QJ8-5" value="" style="edgeStyle=orthogonalEdgeStyle;rounded=0;orthogonalLoop=1;jettySize=auto;html=1;" edge="1" parent="1" source="IrejGU1qMt31SxDA8QJ8-2" target="IrejGU1qMt31SxDA8QJ8-4">
          <mxGeometry relative="1" as="geometry" />
        </mxCell>
        <mxCell id="IrejGU1qMt31SxDA8QJ8-2" value="&lt;font style=&quot;vertical-align: inherit;&quot;&gt;&lt;font style=&quot;vertical-align: inherit;&quot;&gt;Nhập a,b&lt;/font&gt;&lt;/font&gt;" style="shape=parallelogram;perimeter=parallelogramPerimeter;whiteSpace=wrap;html=1;fixedSize=1;" vertex="1" parent="1">
          <mxGeometry x="340" y="360" width="120" height="60" as="geometry" />
        </mxCell>
        <mxCell id="IrejGU1qMt31SxDA8QJ8-7" value="" style="edgeStyle=orthogonalEdgeStyle;rounded=0;orthogonalLoop=1;jettySize=auto;html=1;" edge="1" parent="1" source="IrejGU1qMt31SxDA8QJ8-4" target="IrejGU1qMt31SxDA8QJ8-6">
          <mxGeometry relative="1" as="geometry" />
        </mxCell>
        <mxCell id="IrejGU1qMt31SxDA8QJ8-8" value="Đúng" style="edgeLabel;html=1;align=center;verticalAlign=middle;resizable=0;points=[];" connectable="0" vertex="1" parent="IrejGU1qMt31SxDA8QJ8-7">
          <mxGeometry x="-0.1286" y="-1" relative="1" as="geometry">
            <mxPoint as="offset" />
          </mxGeometry>
        </mxCell>
        <mxCell id="IrejGU1qMt31SxDA8QJ8-10" value="" style="edgeStyle=orthogonalEdgeStyle;rounded=0;orthogonalLoop=1;jettySize=auto;html=1;" edge="1" parent="1" source="IrejGU1qMt31SxDA8QJ8-4" target="IrejGU1qMt31SxDA8QJ8-9">
          <mxGeometry relative="1" as="geometry" />
        </mxCell>
        <mxCell id="IrejGU1qMt31SxDA8QJ8-11" value="Sai" style="edgeLabel;html=1;align=center;verticalAlign=middle;resizable=0;points=[];" connectable="0" vertex="1" parent="IrejGU1qMt31SxDA8QJ8-10">
          <mxGeometry x="-0.1556" y="-1" relative="1" as="geometry">
            <mxPoint as="offset" />
          </mxGeometry>
        </mxCell>
        <mxCell id="IrejGU1qMt31SxDA8QJ8-4" value="If a&amp;gt;b" style="rhombus;whiteSpace=wrap;html=1;" vertex="1" parent="1">
          <mxGeometry x="290" y="490" width="220" height="80" as="geometry" />
        </mxCell>
        <mxCell id="IrejGU1qMt31SxDA8QJ8-13" style="edgeStyle=orthogonalEdgeStyle;rounded=0;orthogonalLoop=1;jettySize=auto;html=1;" edge="1" parent="1" source="IrejGU1qMt31SxDA8QJ8-6" target="IrejGU1qMt31SxDA8QJ8-12">
          <mxGeometry relative="1" as="geometry" />
        </mxCell>
        <mxCell id="IrejGU1qMt31SxDA8QJ8-6" value="Thì b là số bé nhất" style="shape=parallelogram;perimeter=parallelogramPerimeter;whiteSpace=wrap;html=1;fixedSize=1;" vertex="1" parent="1">
          <mxGeometry x="640" y="500" width="120" height="60" as="geometry" />
        </mxCell>
        <mxCell id="IrejGU1qMt31SxDA8QJ8-9" value="Thì a là số bé nhất" style="shape=parallelogram;perimeter=parallelogramPerimeter;whiteSpace=wrap;html=1;fixedSize=1;" vertex="1" parent="1">
          <mxGeometry x="340" y="660" width="120" height="60" as="geometry" />
        </mxCell>
        <mxCell id="IrejGU1qMt31SxDA8QJ8-12" value="End" style="ellipse;whiteSpace=wrap;html=1;" vertex="1" parent="1">
          <mxGeometry x="640" y="660" width="120" height="80" as="geometry" />
        </mxCell>
        <mxCell id="IrejGU1qMt31SxDA8QJ8-14" style="edgeStyle=orthogonalEdgeStyle;rounded=0;orthogonalLoop=1;jettySize=auto;html=1;entryX=0.033;entryY=0.363;entryDx=0;entryDy=0;entryPerimeter=0;" edge="1" parent="1" source="IrejGU1qMt31SxDA8QJ8-9" target="IrejGU1qMt31SxDA8QJ8-12">
          <mxGeometry relative="1" as="geometry">
            <mxPoint x="620" y="690" as="targetPoint" />
          </mxGeometry>
        </mxCell>
      </root>
    </mxGraphModel>
  </diagram>
</mxfile>
